<svg xmlns="http://www.w3.org/2000/svg" viewBox="0 0 108 27" fill="none">
  <path fill-rule="evenodd" clip-rule="evenodd" d="M13.9748 0.00933171C17.96 0.127062 21.708 1.75172 24.3122 4.82482C27.0561 8.06278 29.0911 12.3509 27.9112 16.4551C26.7842 20.3752 22.5069 21.839 18.9039 23.6365C15.2511 25.4589 11.4601 28.0458 7.66462 26.556C3.61839 24.9677 1.32352 20.6844 0.396423 16.3719C-0.519453 12.1115 0.0920205 7.52251 2.85667 4.19098C5.53913 0.958503 9.81984 -0.113415 13.9748 0.00933171ZM12.0414 15.1562H9.04973C8.0785 15.1562 7.29121 14.3511 7.29121 13.358C7.29121 12.3648 8.0785 11.5595 9.04973 11.5595H10.4227C11.4111 11.552 12.211 10.7356 12.2216 9.72589V8.31599C12.2216 7.32258 13.0089 6.51726 13.9801 6.51726C14.9514 6.51726 15.7389 7.32258 15.7389 8.31599L15.7381 11.5722H18.744C19.7178 11.5722 20.5065 12.3592 20.5065 13.3303C20.5065 14.3015 19.7178 15.088 18.744 15.088H17.3684C16.3779 15.0956 15.5762 15.8935 15.5651 16.8808V18.2594C15.5651 19.2305 14.7764 20.0173 13.8033 20.0173C12.8293 20.0173 12.0406 19.2305 12.0406 18.2594L12.0414 15.1562Z" fill="currentColor"/>
  <path d="M48.6837 0.46582C48.0145 0.46582 47.3732 0.801328 47.3732 1.55622V9.11635H43.9994C43.9994 8.83676 44.0272 8.52921 44.0272 8.1937V4.67086C44.0272 3.07719 43.4975 2.57393 41.8802 2.57393H35.244C34.547 2.57393 34.2402 3.13311 34.2402 3.77617C34.2402 4.41923 34.547 4.97841 35.244 4.97841H40.8207C41.2389 4.97841 41.4062 5.11821 41.4062 5.56555V8.44533L34.4912 8.75288C33.7941 8.78084 33.5432 9.4239 33.571 10.011C33.6268 10.6541 33.9614 11.1853 34.6306 11.1574L41.2668 10.71C40.8764 12.5274 39.5102 13.6737 34.3797 17.0847C33.7662 17.5041 33.8499 18.3149 34.2124 18.8741C34.6027 19.4053 35.3277 19.6289 35.9132 19.2375C41.4341 15.5469 43.2186 13.9533 43.7763 11.4929H47.3732V25.3885C47.3732 26.1434 48.0145 26.4789 48.6837 26.4789C49.3251 26.4789 49.9664 26.1434 49.9664 25.3885V1.55622C49.9664 0.801328 49.3251 0.46582 48.6837 0.46582ZM53.8421 0.532921C53.2008 0.532921 52.5595 0.86843 52.5595 1.62332V25.3885C52.5595 26.1434 53.2008 26.4789 53.8421 26.4789C54.5113 26.4789 55.1526 26.1434 55.1526 25.3885V1.62332C55.1526 0.86843 54.5113 0.532921 53.8421 0.532921Z" fill="currentColor"/>
  <path d="M78.4952 0.574812C77.7982 0.574812 77.129 0.93828 77.129 1.74909V9.15824H72.3609C72.0542 4.51704 69.8793 2.02868 65.9478 2.02868C61.6817 2.02868 59.5068 4.93642 59.5068 10.3605C59.5068 15.7845 61.6817 18.6923 65.9478 18.6923C69.8793 18.6923 72.0542 16.2039 72.3609 11.5348H77.129V25.3046C77.129 26.1154 77.7982 26.4789 78.4952 26.4789C79.2202 26.4789 79.8894 26.1154 79.8894 25.3046V1.74909C79.8894 0.93828 79.2202 0.574812 78.4952 0.574812ZM65.9478 4.48908C68.6525 4.48908 69.712 6.55805 69.712 10.3605C69.712 14.1629 68.6525 16.2319 65.9478 16.2319C63.271 16.2319 62.2115 14.1629 62.2115 10.3605C62.2115 6.55805 63.271 4.48908 65.9478 4.48908Z" fill="currentColor"/>
  <path d="M96.1776 1.90291H87.2549C85.6377 1.90291 85.1079 2.40618 85.1079 3.99984V11.6047C85.1079 13.1984 85.6377 13.7016 87.2549 13.7016C92.6643 13.7016 95.9824 13.45 98.5755 13.0865C99.1889 13.0306 99.4399 12.4155 99.3562 11.7445C99.3005 11.1014 98.8822 10.6541 98.2409 10.738C95.2295 11.1294 92.1345 11.3251 88.4818 11.3251C88.0635 11.3251 87.8962 11.1853 87.8962 10.738V4.86657C87.8962 4.44719 88.0635 4.30739 88.4818 4.30739H96.1776C96.8467 4.30739 97.1535 3.74821 97.1535 3.10515C97.1535 2.46209 96.8467 1.90291 96.1776 1.90291ZM102.507 0.532921C101.782 0.532921 101.113 0.896388 101.113 1.7072V14.4845C101.113 15.2953 101.782 15.6588 102.507 15.6588C103.232 15.6588 103.901 15.2953 103.901 14.4845V9.00451H106.968C107.693 9.00451 108 8.47329 108 7.77431C108 7.13125 107.693 6.57207 106.968 6.57207H103.901V1.7072C103.901 0.896388 103.232 0.532921 102.507 0.532921ZM88.3981 16.861C87.7011 16.861 87.3943 17.4202 87.3943 18.0632C87.3943 18.7063 87.7011 19.2655 88.3981 19.2655H100.527C100.946 19.2655 101.113 19.4053 101.113 19.8247V25.3606C101.113 26.1714 101.782 26.5348 102.507 26.5348C103.232 26.5348 103.901 26.1714 103.901 25.3606V18.9579C103.901 17.3643 103.371 16.861 101.754 16.861H88.3981Z" fill="currentColor"/>
</svg>